<?xml version="1.0" encoding="UTF-8" standalone="no"?>
<!-- Generator: Adobe Illustrator 25.2.1, SVG Export Plug-In . SVG Version: 6.00 Build 0)  -->

<svg
   version="1.0"
   id="Ebene_1"
   x="0px"
   y="0px"
   viewBox="0 0 4741.8999 1449"
   xml:space="preserve"
   sodipodi:docname="logo_white.svg"
   width="4741.8999"
   height="1449"
   inkscape:version="1.2 (dc2aedaf03, 2022-05-15)"
   xmlns:inkscape="http://www.inkscape.org/namespaces/inkscape"
   xmlns:sodipodi="http://sodipodi.sourceforge.net/DTD/sodipodi-0.dtd"
   xmlns="http://www.w3.org/2000/svg"
   xmlns:svg="http://www.w3.org/2000/svg"><defs
   id="defs23" /><sodipodi:namedview
   id="namedview21"
   pagecolor="#ffffff"
   bordercolor="#000000"
   borderopacity="0.25"
   inkscape:showpageshadow="2"
   inkscape:pageopacity="0.0"
   inkscape:pagecheckerboard="0"
   inkscape:deskcolor="#d1d1d1"
   showgrid="false"
   inkscape:zoom="0.24503848"
   inkscape:cx="2115.9942"
   inkscape:cy="726.41653"
   inkscape:window-width="1920"
   inkscape:window-height="1009"
   inkscape:window-x="-8"
   inkscape:window-y="-8"
   inkscape:window-maximized="1"
   inkscape:current-layer="Ebene_1" />
<style
   type="text/css"
   id="style2">
	.st0{fill:#FFFFFF;}
	.st1{fill:#0D2C99;}
	.st2{fill-rule:evenodd;clip-rule:evenodd;fill:#FFFFFF;}
</style>
<path
   class="st0"
   d="m 1161,1449 c -157,0 -285,-128 -285,-285 0,-157 128,-285 285,-285 157,0 285,128 285,285 0,157 -128,285 -285,285 z"
   id="path4" />
<path
   class="st0"
   d="m 1921,1139.5 v -825 h 215.2 v 824.9 H 1921 Z"
   id="path6" />
<path
   class="st0"
   d="m 2887.8,314.5 h 217.6 l -375.5,824.9 H 2559.1 L 2183.6,314.5 H 2407 l 239.8,557 z"
   id="path8" />
<path
   class="st0"
   d="m 3698.4,1139.5 -73.7,-170.8 h -365 l -73.7,170.8 h -216.4 l 384.8,-824.9 h 170.8 l 386,824.9 z M 3328.7,807.2 h 226.9 L 3442.1,542.8 Z"
   id="path10" />
<path
   class="st0"
   d="m 4330.2,1150 c -84.2,0 -157.5,-17.2 -219.9,-51.5 -61.6,-35.1 -109.2,-84.2 -142.7,-147.4 -33.5,-64 -50.3,-138.9 -50.3,-224.7 0,-85.8 16.8,-160.3 50.3,-223.5 33.5,-64 81.1,-113.1 142.7,-147.4 62.4,-34.3 135.7,-51.5 219.9,-51.5 84.2,0 157.1,17.2 218.7,51.5 62.4,34.3 110,83.5 142.7,147.4 33.5,63.2 50.3,137.7 50.3,223.5 0,85.8 -16.8,160.7 -50.3,224.7 -33.5,63.2 -81.5,112.3 -143.9,147.4 -61.5,34.3 -134,51.5 -217.5,51.5 z m 0,-165 c 62.4,0 111.1,-21.8 146.2,-65.5 35.1,-44.5 52.6,-108.8 52.6,-193.1 0,-84.3 -17.9,-148.2 -53.8,-191.9 -35.1,-43.7 -83.4,-65.5 -145,-65.5 -62.4,0 -111.1,21.8 -146.2,65.5 -35.1,42.9 -52.6,106.9 -52.6,191.9 0,85 17.5,149.4 52.6,193.1 35.1,43.7 83.9,65.5 146.2,65.5 z"
   id="path12" />
<path
   class="st1"
   d="m 1092.1,1156.8 61.3,82.2 h -27.7 l -47.2,-64.8 -47.2,64.8 h -27.7 l 61.6,-82.4 -59.1,-79 h 27.7 l 44.9,61.6 44.6,-61.6 h 27.5 z m 200.2,82.2 -17.2,-39.8 h -81.7 l -17.2,39.8 h -23.8 l 71.9,-161.4 h 19.7 l 71.9,161.4 z m -90.9,-58.6 h 65.7 l -32.7,-76.5 z"
   id="path14" />
<path
   class="st2"
   d="m 767.5,767.5 c -0.3,0 -35.4,-4.5 -39.5,-4.7 -0.4,0 -0.9,0 -1.5,-0.1 -3.2,-0.1 -8.7,-0.3 -12.6,-0.6 -2.8,-0.2 -5.9,-2.5 -6,-5.3 -0.1,-1.4 -0.1,-3 -0.1,-4.7 0,-1.4 0,-2.9 -0.1,-4.3 0,-6.1 0.7,-16 1,-18.3 0,-0.1 0.1,-0.3 0.2,-0.4 0.2,-0.4 0.7,-0.5 1.1,-0.5 h 7.8 c 1.2,0 1.3,3 1.1,4.9 0,0.1 0,0.2 0,0.4 0,1.6 -0.4,14 -0.4,15.7 0,1.8 3.4,3.2 7.7,3.1 4.3,-0.2 41.3,-2.3 42,-2.3 0,0 0,0 0,0 0.7,0 77.4,-3.4 85.5,-3.8 8.1,-0.4 9.3,-12.2 9.2,-21.4 -0.1,-5.7 -1.3,-11.3 -2.2,-14.7 -0.5,-2 -2.4,-3.4 -4.5,-3.4 l -9.3,-0.2 c -1.4,0 -2.5,-1.3 -2.4,-2.7 0.1,-1.3 1.2,-2.4 2.6,-2.3 l 23.1,1 c 2.3,0.1 4.2,1.8 5.3,3.9 0.8,1.5 2.1,2.8 3.8,2.8 1.1,0 1.9,-0.5 2.5,-1.2 0.1,-0.1 0.2,-0.3 0.3,-0.4 1.7,-2 3.6,-4.3 6.2,-4.2 2.7,0.1 4.8,2.3 4.7,5 -0.1,4.4 -0.2,10.7 -0.3,13.9 0,5.4 2.3,10.4 5.7,10.6 1.4,0.1 2.4,-0.5 3.1,-1.4 1.7,-2 3.7,-4.1 6.3,-4 l 7.8,0.3 c 2.7,0.1 4.7,2.4 5.6,4.9 0.7,1.8 1.9,3.4 4,3.4 2.2,0.2 3.5,-1.4 4.4,-3.2 1.1,-2.4 3.3,-4.5 5.9,-4.4 l 50.6,1.8 c 1.7,0.1 3,1.3 4.3,2.5 0.7,0.6 1.4,1.3 2.1,1.8 0.4,0.2 0.8,0.4 1.4,0.4 1,0 1.9,-0.5 2.5,-1.1 1.6,-1.5 3.4,-3 5.6,-3 l 20.2,0.6 c 1.5,0 2.9,-0.6 3.9,-1.7 l 0.4,-0.4 c 1.9,-2.2 5.4,-2.3 7.6,-0.3 3.3,2.8 8,6.2 11.5,6.1 5.9,0 15.6,-8.1 19.4,-16.6 1.7,-3.7 2.6,-7 3.1,-9.5 0.6,-2.7 2.8,-4.9 5.6,-4.9 23,-0.1 119,-0.3 128.3,-0.3 10.6,-0.2 11.7,-27.5 11,-25.7 -0.4,1.1 -1.8,4.6 -2.8,7.4 -0.8,2.1 -2.9,3.4 -5.1,3.2 l -144.2,-11.7 c -1.6,-0.1 -3,-1 -4.1,-2.2 -2.2,-2.3 -6.6,-6 -13.3,-6.5 -6.4,-0.5 -10.9,2.3 -13.3,4.5 -1.4,1.2 -3.3,2 -5.2,1.7 L 902.5,655.2 c -1.6,-0.3 -2.9,-1.2 -3.8,-2.5 -2.7,-3.8 -9.6,-11.3 -21.5,-11.6 -7,-0.3 -10.9,1.5 -13.1,3.3 -2,1.7 -4.7,3.3 -7.3,2.9 -127.1,-22.6 -139.8,-36 -141,-38 -0.1,-0.2 -0.1,-0.3 -0.2,-0.5 -0.2,-2.3 -1.8,-18.4 -1.8,-41.8 0,-94.1 -39.7,-147.9 -55.7,-147.9 -0.1,0 -0.1,0 -0.2,0 -0.1,0 -0.1,0 -0.2,0 -16,0 -55.7,53.8 -55.7,147.9 0,23.4 -1.5,39.5 -1.8,41.8 0,0.2 0,0.4 -0.2,0.5 -1.2,2 -13.9,15.4 -141,38 -2.6,0.5 -5.3,-1.2 -7.3,-2.9 -2.2,-1.8 -6.2,-3.6 -13.1,-3.3 -11.8,0.3 -18.7,7.8 -21.5,11.6 -0.9,1.3 -2.3,2.2 -3.8,2.5 L 290.8,675 c -1.9,0.3 -3.7,-0.5 -5.2,-1.7 -2.4,-2.1 -6.9,-4.9 -13.3,-4.5 -6.8,0.5 -11.2,4.2 -13.3,6.5 -1.1,1.2 -2.5,2 -4.1,2.2 l -144.2,11.7 c -2.2,0.2 -4.3,-1.1 -5.1,-3.2 -1,-2.8 -2.4,-6.4 -2.8,-7.4 -0.7,-1.8 0.4,25.5 11,25.7 9.3,0 105.2,0.3 128.3,0.3 2.8,0 5,2.3 5.6,4.9 0.5,2.5 1.4,5.7 3.1,9.5 3.8,8.5 13.5,16.6 19.4,16.6 3.5,0.1 8.2,-3.3 11.5,-6.1 2.2,-1.9 5.7,-1.9 7.6,0.3 l 0.4,0.4 c 1,1.1 2.4,1.7 3.9,1.7 l 20.2,-0.6 c 2.2,-0.1 4,1.5 5.6,3 0.7,0.6 1.5,1.1 2.5,1.1 0.6,0 1,-0.2 1.4,-0.4 0.7,-0.5 1.4,-1.1 2.1,-1.8 1.3,-1.2 2.6,-2.4 4.3,-2.5 l 50.6,-1.8 c 2.7,-0.1 4.8,2 5.9,4.4 0.8,1.8 2.2,3.3 4.4,3.2 2.2,0 3.4,-1.6 4,-3.4 0.9,-2.5 2.9,-4.8 5.6,-4.9 l 7.8,-0.3 c 2.6,-0.1 4.6,2 6.3,4 0.7,0.8 1.7,1.4 3.1,1.4 3.4,-0.2 5.7,-5.2 5.7,-10.6 -0.1,-3.2 -0.2,-9.5 -0.3,-13.9 0,-2.7 2.1,-4.9 4.7,-5 2.6,-0.1 4.5,2.2 6.2,4.2 0.1,0.1 0.2,0.3 0.3,0.4 0.6,0.7 1.4,1.2 2.5,1.2 1.8,0 3,-1.3 3.8,-2.8 1.1,-2 3,-3.8 5.3,-3.9 l 23.1,-1 c 1.4,-0.1 2.5,1 2.6,2.3 0.1,1.4 -1,2.6 -2.4,2.7 l -9.3,0.2 c -2.1,0 -3.9,1.4 -4.5,3.4 -0.9,3.4 -2.1,9 -2.2,14.7 -0.2,9.2 1.1,21 9.2,21.4 8,0.4 84.8,3.7 85.5,3.8 0,0 0,0 0,0 0.7,0 37.7,2.2 42,2.3 4.3,0.2 7.7,-1.3 7.7,-3.1 0,-1.7 -0.3,-14 -0.4,-15.7 0,-0.1 0,-0.2 0,-0.2 0,0 0,-0.1 0,-0.1 -0.2,-1.8 -0.1,-4.9 1.1,-4.9 h 7.8 c 0.4,0 0.9,0.1 1.1,0.5 0.1,0.1 0.1,0.3 0.2,0.4 0.4,2.3 1,12.2 1,18.3 0,1.4 -0.1,2.9 -0.1,4.3 0,1.7 0,3.3 -0.1,4.7 -0.1,2.8 -3.3,5.1 -6,5.3 -3.8,0.2 -9,0.5 -12.2,0.6 -0.8,0 -1.4,0.1 -1.9,0.1 -4.1,0.2 -39.2,4.6 -39.5,4.7 0,0 0,0 0,0 -0.3,0 -75.2,9.2 -77.2,9.5 -2,0.4 -1.8,3.8 0,3.8 0.3,0 2,0.1 4.7,0.3 13.8,0.8 54.9,3.4 81.5,2.6 27.3,-0.9 60.8,-2.1 70.1,-2.4 1.6,-0.1 3,0.6 4.1,1.8 3.9,4.4 13.9,15.4 22.1,18.4 -0.7,0.5 -1,0.8 0.1,0.8 h 3.8 c 0,0 0,0 0.1,0 h 4.2 c 1,0 0.8,-0.3 0.1,-0.8 8.2,-3 18.3,-13.9 22.1,-18.4 1,-1.2 2.5,-1.9 4.1,-1.8 9.3,0.3 42.8,1.5 70.1,2.4 26.6,0.8 67.7,-1.8 81.5,-2.6 2.7,-0.2 4.4,-0.3 4.7,-0.3 1.8,0 2,-3.4 0,-3.8 -1.6,-0.5 -76.6,-9.6 -76.9,-9.6 z"
   id="path16" />
<path
   class="st0"
   d="M 660,0 C 295.5,0 0,295.5 0,660 c 0,364.5 295.5,660 660,660 53.4,0 105.3,-6.3 155,-18.3 -6.1,-16.1 -11.2,-32.8 -15,-49.9 -45,10.6 -91.8,16.2 -140,16.2 C 324.2,1268 52,995.8 52,660 52,324.2 324.2,52 660,52 c 335.8,0 608,272.2 608,608 0,51.5 -6.4,101.6 -18.5,149.4 17,4.1 33.6,9.4 49.6,15.8 C 1312.8,772.4 1320,717 1320,660 1320,295.5 1024.5,0 660,0 Z"
   id="path18" />
</svg>
