<?xml version="1.0" encoding="UTF-8" standalone="no"?>
<svg
   version="1.0"
   id="Ebene_1"
   x="0px"
   y="0px"
   viewBox="0 0 306.79999 307.10001"
   xml:space="preserve"
   sodipodi:docname="xa_logo.svg"
   width="306.79999"
   height="307.10001"
   inkscape:version="1.2 (dc2aedaf03, 2022-05-15)"
   xmlns:inkscape="http://www.inkscape.org/namespaces/inkscape"
   xmlns:sodipodi="http://sodipodi.sourceforge.net/DTD/sodipodi-0.dtd"
   xmlns="http://www.w3.org/2000/svg"
   xmlns:svg="http://www.w3.org/2000/svg"><defs
   id="defs15" /><sodipodi:namedview
   id="namedview13"
   pagecolor="#ffffff"
   bordercolor="#000000"
   borderopacity="0.25"
   inkscape:showpageshadow="2"
   inkscape:pageopacity="0.0"
   inkscape:pagecheckerboard="0"
   inkscape:deskcolor="#d1d1d1"
   showgrid="false"
   inkscape:zoom="1.6191406"
   inkscape:cx="100.97949"
   inkscape:cy="153.78528"
   inkscape:window-width="1920"
   inkscape:window-height="1009"
   inkscape:window-x="-8"
   inkscape:window-y="-8"
   inkscape:window-maximized="1"
   inkscape:current-layer="Ebene_1" />
<style
   type="text/css"
   id="style2">
	.st0{fill:#0D2C99;}
	.st1{fill-rule:evenodd;clip-rule:evenodd;fill:#0D2C99;}
	.st2{fill:#FFFFFF;}
</style>
<path
   class="st0"
   d="m 246.7,307.1 c -33.1,0 -60.1,-27.1 -60.1,-60.3 0,-33.2 27,-60.3 60.1,-60.3 33.1,0 60.1,27.1 60.1,60.3 0,33.2 -27,60.3 -60.1,60.3 z"
   id="path4" />
<path
   class="st1"
   d="m 162.7,162.7 c -0.1,0 -7.5,-1 -8.4,-1 -0.1,0 -0.2,0 -0.3,0 -0.7,0 -1.8,-0.1 -2.7,-0.1 -0.6,0 -1.3,-0.5 -1.3,-1.1 0,-0.3 0,-0.6 0,-1 0,-0.3 0,-0.6 0,-0.9 0,-1.3 0.1,-3.4 0.2,-3.9 0,0 0,-0.1 0,-0.1 0.1,-0.1 0.1,-0.1 0.2,-0.1 h 1.6 c 0.3,0 0.3,0.6 0.2,1 0,0 0,0.1 0,0.1 0,0.3 -0.1,3 -0.1,3.3 0,0.4 0.7,0.7 1.6,0.6 0.9,0 8.8,-0.5 8.9,-0.5 0,0 0,0 0,0 0.1,0 16.4,-0.7 18.1,-0.8 1.7,-0.1 2,-2.6 1.9,-4.5 0,-1.2 -0.3,-2.4 -0.5,-3.1 -0.1,-0.4 -0.5,-0.7 -0.9,-0.7 h -2 c -0.3,0 -0.5,-0.3 -0.5,-0.6 0,-0.3 0.3,-0.5 0.6,-0.5 l 4.9,0.2 c 0.5,0 0.9,0.4 1.1,0.8 0.2,0.3 0.4,0.6 0.8,0.6 0.2,0 0.4,-0.1 0.5,-0.2 0,0 0,-0.1 0.1,-0.1 0.4,-0.4 0.8,-0.9 1.3,-0.9 0.6,0 1,0.5 1,1.1 0,0.9 0,2.3 -0.1,3 0,1.1 0.5,2.2 1.2,2.2 0.3,0 0.5,-0.1 0.7,-0.3 0.4,-0.4 0.8,-0.9 1.3,-0.8 l 1.7,0.1 c 0.6,0 1,0.5 1.2,1 0.1,0.4 0.4,0.7 0.9,0.7 0.5,0 0.8,-0.3 0.9,-0.7 0.2,-0.5 0.7,-1 1.3,-0.9 l 10.7,0.4 c 0.4,0 0.6,0.3 0.9,0.5 0.1,0.1 0.3,0.3 0.4,0.4 0.1,0.1 0.2,0.1 0.3,0.1 0.2,0 0.4,-0.1 0.5,-0.2 0.3,-0.3 0.7,-0.6 1.2,-0.6 l 4.3,0.1 c 0.3,0 0.6,-0.1 0.8,-0.4 l 0.1,-0.1 c 0.4,-0.5 1.1,-0.5 1.6,-0.1 0.7,0.6 1.7,1.3 2.4,1.3 1.3,0 3.3,-1.7 4.1,-3.5 0.4,-0.8 0.6,-1.5 0.7,-2 0.1,-0.6 0.6,-1 1.2,-1 4.9,0 25.2,-0.1 27.2,-0.1 2.2,0 2.5,-5.8 2.3,-5.5 -0.1,0.2 -0.4,1 -0.6,1.6 -0.2,0.4 -0.6,0.7 -1.1,0.7 l -30.6,-2.5 c -0.3,0 -0.6,-0.2 -0.9,-0.5 -0.5,-0.5 -1.4,-1.3 -2.8,-1.4 -1.4,-0.1 -2.3,0.5 -2.8,0.9 -0.3,0.3 -0.7,0.4 -1.1,0.4 l -26,-4.2 c -0.3,-0.1 -0.6,-0.3 -0.8,-0.5 -0.6,-0.8 -2,-2.4 -4.5,-2.5 -1.5,-0.1 -2.3,0.3 -2.8,0.7 -0.4,0.4 -1,0.7 -1.5,0.6 -26.9,-4.8 -29.6,-7.6 -29.9,-8 0,0 0,-0.1 0,-0.1 0,-0.5 -0.4,-3.9 -0.4,-8.9 0,-19.9 -8.4,-31.4 -11.8,-31.4 0,0 0,0 0,0 0,0 0,0 0,0 -3.4,0 -11.8,11.4 -11.8,31.4 0,5 -0.3,8.4 -0.4,8.9 0,0 0,0.1 0,0.1 -0.3,0.4 -3,3.3 -29.9,8 -0.5,0.1 -1.1,-0.3 -1.5,-0.6 -0.5,-0.4 -1.3,-0.8 -2.8,-0.7 -2.5,0.1 -4,1.7 -4.5,2.5 -0.2,0.3 -0.5,0.5 -0.8,0.5 l -26,4.2 c -0.4,0.1 -0.8,-0.1 -1.1,-0.4 -0.5,-0.4 -1.5,-1 -2.8,-0.9 -1.4,0.1 -2.4,0.9 -2.8,1.4 -0.2,0.2 -0.5,0.4 -0.9,0.5 l -30.6,2.5 c -0.5,0 -0.9,-0.2 -1.1,-0.7 -0.2,-0.6 -0.5,-1.4 -0.6,-1.6 -0.2,-0.4 0.1,5.4 2.3,5.5 2,0 22.3,0.1 27.2,0.1 0.6,0 1.1,0.5 1.2,1 0.1,0.5 0.3,1.2 0.7,2 0.8,1.8 2.9,3.5 4.1,3.5 0.7,0 1.7,-0.7 2.4,-1.3 0.5,-0.4 1.2,-0.4 1.6,0.1 l 0.1,0.1 c 0.2,0.2 0.5,0.4 0.8,0.4 l 4.3,-0.1 c 0.5,0 0.9,0.3 1.2,0.6 0.1,0.1 0.3,0.2 0.5,0.2 0.1,0 0.2,0 0.3,-0.1 0.2,-0.1 0.3,-0.2 0.4,-0.4 0.3,-0.3 0.6,-0.5 0.9,-0.5 l 10.7,-0.4 c 0.6,0 1,0.4 1.3,0.9 0.2,0.4 0.5,0.7 0.9,0.7 0.5,0 0.7,-0.3 0.9,-0.7 0.2,-0.5 0.6,-1 1.2,-1 l 1.7,-0.1 c 0.6,0 1,0.4 1.3,0.8 0.2,0.2 0.4,0.3 0.7,0.3 0.7,0 1.2,-1.1 1.2,-2.2 0,-0.7 0,-2 -0.1,-3 0,-0.6 0.4,-1 1,-1.1 0.6,0 1,0.5 1.3,0.9 0,0 0,0.1 0.1,0.1 0.1,0.1 0.3,0.2 0.5,0.2 0.4,0 0.6,-0.3 0.8,-0.6 0.2,-0.4 0.6,-0.8 1.1,-0.8 l 4.9,-0.2 c 0.3,0 0.5,0.2 0.6,0.5 0,0.3 -0.2,0.6 -0.5,0.6 h -2 c -0.4,0 -0.8,0.3 -0.9,0.7 -0.2,0.7 -0.5,1.9 -0.5,3.1 0,1.9 0.2,4.5 1.9,4.5 1.7,0.1 18,0.8 18.1,0.8 0,0 0,0 0,0 0.1,0 8,0.5 8.9,0.5 0.9,0 1.6,-0.3 1.6,-0.6 0,-0.4 -0.1,-3 -0.1,-3.3 0,0 0,-0.1 0,-0.1 0,-0.4 0,-1 0.2,-1 h 1.6 c 0.1,0 0.2,0 0.2,0.1 0,0 0,0.1 0,0.1 0.1,0.5 0.2,2.6 0.2,3.9 0,0.3 0,0.6 0,0.9 0,0.4 0,0.7 0,1 0,0.6 -0.7,1.1 -1.3,1.1 -0.8,0.1 -1.9,0.1 -2.6,0.1 -0.2,0 -0.3,0 -0.4,0 -0.9,0 -8.3,1 -8.4,1 v 0 0 c -0.3,0 -16,1.9 -16.4,2 -0.4,0.1 -0.4,0.8 0,0.8 0.1,0 0.4,0 1,0.1 2.9,0.2 11.6,0.7 17.3,0.6 5.8,-0.2 12.9,-0.4 14.9,-0.5 0.3,0 0.6,0.1 0.9,0.4 0.8,0.9 2.9,3.3 4.7,3.9 -0.2,0.1 -0.2,0.2 0,0.2 h 0.8 c 0,0 0,0 0,0 h 0.9 c 0.2,0 0.2,-0.1 0,-0.2 1.7,-0.6 3.9,-3 4.7,-3.9 0.2,-0.3 0.5,-0.4 0.9,-0.4 2,0.1 9.1,0.3 14.9,0.5 5.6,0.2 14.3,-0.4 17.3,-0.6 0.6,0 0.9,-0.1 1,-0.1 0.4,0 0.4,-0.7 0,-0.8 0.1,0 -15.6,-2 -15.9,-2 z"
   id="path6" />
<path
   class="st0"
   d="M 139.9,0 C 62.6,0 0,62.6 0,139.9 c 0,77.3 62.6,140 139.9,140 11.3,0 22.3,-1.3 32.9,-3.9 -1.3,-3.4 -2.4,-7 -3.2,-10.6 -9.5,2.2 -19.5,3.4 -29.7,3.4 C 68.7,268.8 11,211.1 11,139.9 11,68.7 68.7,11 139.9,11 c 71.2,0 128.9,57.7 128.9,128.9 0,10.9 -1.4,21.5 -3.9,31.7 3.6,0.9 7.1,2 10.5,3.4 2.9,-11.2 4.4,-22.9 4.4,-35 C 279.8,62.6 217.2,0 139.9,0 Z"
   id="path8" />
<path
   class="st2"
   d="m 232.2,245.2 13,17.4 h -5.9 l -10,-13.7 -10,13.7 h -5.9 l 13,-17.4 -12.5,-16.7 h 5.9 l 9.5,13 9.4,-13 h 5.8 z m 42.4,17.4 -3.6,-8.4 h -17.4 l -3.6,8.4 h -5 l 15.2,-34.1 h 4.2 l 15.2,34.1 z m -19.3,-12.4 h 13.9 L 262.3,234 Z"
   id="path10" />
</svg>
